<svg width="25" height="24" viewBox="0 0 25 24" fill="none" xmlns="http://www.w3.org/2000/svg">
<path d="M24.5 12C24.5 18.6274 19.1274 24 12.5 24C5.87258 24 0.5 18.6274 0.5 12C0.5 5.37258 5.87258 0 12.5 0C19.1274 0 24.5 5.37258 24.5 12Z" fill="white"/>
<path d="M20 12.18C20 11.6533 19.9538 11.1533 19.8746 10.6667H12.4183V13.6733H16.6875C16.4962 14.66 15.9353 15.4933 15.1039 16.06V18.06H17.6509C19.1422 16.6667 20 14.6133 20 12.18Z" fill="#4285F4"/>
<path d="M12.4183 20C14.5562 20 16.3444 19.28 17.6509 18.06L15.1039 16.06C14.3912 16.54 13.4872 16.8333 12.4183 16.8333C10.3529 16.8333 8.6043 15.4267 7.97744 13.5267H5.35121V15.5867C6.65113 18.2 9.32354 20 12.4183 20Z" fill="#34A853"/>
<path d="M7.97744 13.5267C7.81247 13.0467 7.72669 12.5333 7.72669 12C7.72669 11.4667 7.81907 10.9533 7.97744 10.4733V8.41333H5.35121C4.81013 9.49333 4.5 10.7067 4.5 12C4.5 13.2933 4.81013 14.5067 5.35121 15.5867L7.97744 13.5267Z" fill="#FBBC05"/>
<path d="M12.4183 7.16667C13.5862 7.16667 14.6288 7.57333 15.4536 8.36667L17.7103 6.08667C16.3444 4.79333 14.5562 4 12.4183 4C9.32354 4 6.65113 5.8 5.35121 8.41333L7.97744 10.4733C8.6043 8.57333 10.3529 7.16667 12.4183 7.16667Z" fill="#EA4335"/>
</svg>
