<svg width="40" height="40" viewBox="0 0 40 40" fill="none" xmlns="http://www.w3.org/2000/svg">
<circle cx="20" cy="20" r="20" fill="#D7D9E4"/>
<g clip-path="url(#clip0_408_6634)">
<path d="M22.1255 7.99958L22.1802 23.9829L22.1918 24.0277C23.2442 24.0233 24.2855 23.8117 25.2561 23.405C26.2268 22.9982 27.1078 22.4042 27.8489 21.657C28.59 20.9097 29.1766 20.0238 29.5754 19.0498C29.9741 18.0759 30.1771 17.0329 30.1727 15.9805C30.1683 14.928 29.9567 13.8868 29.55 12.9161C29.1432 11.9455 28.5492 11.0645 27.802 10.3234C27.0547 9.5823 26.1688 8.99564 25.1949 8.59692C24.2209 8.1982 23.1779 7.99523 22.1255 7.99958Z" fill="#FDBC2F"/>
<path d="M17.5526 19.4074C14.7158 16.609 15.6381 13.0372 15.6381 13.0372C16.7872 8.42738 21.4732 8.0832 21.82 8.06348C18.6759 8.122 15.681 9.41552 13.4829 11.6644C11.2848 13.9133 10.06 16.9369 10.0733 20.0816C10.0867 23.2263 11.337 26.2394 13.554 28.4696C15.7711 30.6998 18.7768 31.9679 21.9213 31.9999L21.8926 23.733C20.8628 22.7041 17.5526 19.4074 17.5526 19.4074Z" fill="#F71561"/>
<path d="M19.8685 13.2731C20.6348 13.2731 21.256 12.6519 21.256 11.8856C21.256 11.1193 20.6348 10.498 19.8685 10.498C19.1022 10.498 18.481 11.1193 18.481 11.8856C18.481 12.6519 19.1022 13.2731 19.8685 13.2731Z" fill="#1E0C6A"/>
</g>
<defs>
<clipPath id="clip0_408_6634">
<rect width="20.1064" height="24" fill="white" transform="translate(10 8)"/>
</clipPath>
</defs>
</svg>
