<svg width="16" height="14" viewBox="0 0 16 14" fill="none" xmlns="http://www.w3.org/2000/svg">
<path d="M2.79706 0.00363773C3.49061 0.00363773 4.18541 0.00530591 4.87937 0.000301387C4.91848 -0.00235308 4.95759 0.00544 4.99269 0.0228817C5.0278 0.0403234 5.05763 0.0667864 5.07913 0.0995577C5.51147 0.683418 5.94534 1.26631 6.38073 1.84822C6.96043 2.62559 7.54012 3.40199 8.11981 4.17741C8.30873 4.42763 8.49849 4.68078 8.68574 4.93351C8.78875 5.07238 8.78708 5.07405 8.90094 4.95144C10.0484 3.71282 11.1951 2.47434 12.3411 1.236C12.694 0.854406 13.0476 0.474063 13.3988 0.0912168C13.4226 0.0618891 13.4529 0.0384363 13.4872 0.0226717C13.5216 0.00690717 13.5591 -0.000746856 13.5969 0.000301387C13.9509 0.00322069 14.3058 0.000301387 14.6591 0.000301387C14.6924 0.000301387 14.7371 -0.00803948 14.7508 0.0294944C14.7621 0.0586875 14.7296 0.0849612 14.7091 0.107482C14.0071 0.865388 13.3048 1.62204 12.6022 2.37745C11.9071 3.12813 11.2121 3.8788 10.517 4.62948C10.1617 5.01358 9.80801 5.39934 9.44977 5.78094C9.39013 5.84433 9.39806 5.8902 9.44477 5.95151C9.77507 6.3869 10.1045 6.82313 10.4332 7.26019C10.7814 7.72561 11.1246 8.19479 11.4724 8.66062C12.1102 9.51473 12.7489 10.368 13.3883 11.2204C14.054 12.1101 14.719 12.9998 15.3835 13.8895C15.401 13.9133 15.4356 13.9404 15.4231 13.9692C15.4073 14.005 15.3626 13.9954 15.3289 13.9954C13.9129 13.9954 12.4968 13.9954 11.0808 13.9954C11.0499 13.995 11.0195 13.9865 10.9929 13.9708C10.9662 13.955 10.944 13.9326 10.9286 13.9058C10.5883 13.447 10.2492 12.9883 9.90727 12.5295C9.18439 11.5626 8.46026 10.5961 7.73488 9.63025C7.49007 9.30371 7.24694 8.97549 7.00213 8.64895C6.91622 8.53426 6.89704 8.53384 6.79861 8.64019C5.90419 9.61218 5.00907 10.5829 4.11326 11.5524C3.38176 12.3437 2.64985 13.1347 1.91751 13.9254C1.89768 13.949 1.87273 13.9678 1.84455 13.9804C1.81637 13.993 1.7857 13.999 1.75487 13.9979C1.39371 13.9959 1.03296 13.9979 0.670549 13.9979C0.637185 13.9979 0.592145 14.0088 0.57588 13.9733C0.559615 13.9379 0.600903 13.9116 0.622589 13.8899C1.31363 13.1651 1.98424 12.4215 2.66611 11.6879C3.30753 10.9976 3.94825 10.3067 4.58827 9.61524C5.13919 9.02012 5.68802 8.42291 6.24019 7.82946C6.30567 7.75898 6.30358 7.71477 6.24436 7.63637C5.74974 6.98244 5.2618 6.3231 4.77052 5.66625C4.4202 5.19791 4.06613 4.73208 3.71581 4.26374C3.14474 3.49804 2.57436 2.73207 2.00468 1.96583C1.54315 1.34721 1.0812 0.729154 0.618835 0.111652C0.599651 0.0862123 0.556696 0.0616068 0.576297 0.0249069C0.595898 -0.0117929 0.639271 0.00363773 0.672634 0.00363773H2.79706ZM3.52022 0.969927V0.972012H2.61481C2.58103 0.972012 2.53724 0.95825 2.51723 0.989945C2.49721 1.02164 2.53558 1.05375 2.55434 1.07878C2.85336 1.48164 3.15697 1.88242 3.45558 2.28445C4.03777 3.06293 4.61955 3.84141 5.20091 4.61989C6.01276 5.70643 6.8253 6.79269 7.63854 7.87867C8.39534 8.88958 9.15297 9.90008 9.91144 10.9102C10.4152 11.5838 10.9167 12.2587 11.4157 12.9349C11.4418 12.9752 11.4781 13.0078 11.521 13.0292C11.564 13.0506 11.6118 13.0601 11.6597 13.0567C11.9858 13.0521 12.312 13.0567 12.6381 13.0567C12.9022 13.0567 13.1663 13.0567 13.4305 13.0567C13.4609 13.0567 13.4955 13.065 13.5139 13.0283C13.5322 12.9916 13.4968 12.9741 13.478 12.9503C13.4409 12.9049 13.4059 12.8573 13.3708 12.8102C12.6783 11.8905 11.9862 10.9697 11.2948 10.0477C10.8415 9.44091 10.3935 8.82953 9.9398 8.22273C9.42767 7.53836 8.91011 6.85816 8.39673 6.17379C7.77923 5.34805 7.16297 4.52119 6.54797 3.69322C5.89488 2.81604 5.24095 1.93983 4.58619 1.0646C4.56565 1.03302 4.53713 1.00743 4.50351 0.99044C4.46989 0.973447 4.43237 0.965651 4.39476 0.967842C4.10325 0.972847 3.81173 0.969927 3.52022 0.969927Z" fill="white"/>
</svg>
